# xmcd
#
# Track frame offsets:
#	150
#	12430
#	19805
#	29120
#	46427
#	60122
#	75167
#	88455
#	103145
#	114129
#	126452
#	141785
#	157307
#	168302
#
# Disc length: 2506 seconds
#
# Revision: 0
# Processed by: cddbd v1.5.2PL0 Copyright (c) Steve Scherf et al.
# Submitted via: dBpowerAMP V4.0
#
DISCID=b909c80e
DTITLE=Varios - 40 Años de Samba Vol.2
DYEAR=1900
DGENRE=Samba
TTITLE0=Elis Regina e Marcos Valle - Terra de ninguém
TTITLE1=Antonio Carlos Jobim - Só tinha de ser com vocé
TTITLE2=Geraldo Vandré - Quem quiser encontrar o amor
TTITLE3=Jorge Ben - Chove Chuva
TTITLE4=Alaíde Costa - Sonho de um carnaval
TTITLE5=Zimbo trío - O amor em paz
TTITLE6=Agostinho Dos Santos - Chora tua tristeza
TTITLE7=Elza Laranjeira - Pot toda minha vida
TTITLE8=Manfredo fest trío - Nós e o mar
TTITLE9=Toquinho - Deixa
TTITLE10=Octeto de Cesar Camargo Mariano - Pra machucar meu coraÇao
TTITLE11=Oscar Castro Neves - Antes e depois
TTITLE12=SAMBALANÇO TRIO - Naña
TTITLE13=Agostinho Dos Santos - Primavera
EXTD=
EXTT0=
EXTT1=
EXTT2=
EXTT3=
EXTT4=
EXTT5=
EXTT6=
EXTT7=
EXTT8=
EXTT9=
EXTT10=
EXTT11=
EXTT12=
EXTT13=
PLAYORDER=
